<svg width="22" height="21" viewBox="0 0 22 21" fill="none" xmlns="http://www.w3.org/2000/svg">
<path d="M7.5 21.0001C8.32843 21.0001 9 20.3285 9 19.5001C9 18.6717 8.32843 18.0001 7.5 18.0001C6.67157 18.0001 6 18.6717 6 19.5001C6 20.3285 6.67157 21.0001 7.5 21.0001Z" fill="#1D1D1B"/>
<path d="M18 21.0001C18.8284 21.0001 19.5 20.3285 19.5 19.5001C19.5 18.6717 18.8284 18.0001 18 18.0001C17.1716 18.0001 16.5 18.6717 16.5 19.5001C16.5 20.3285 17.1716 21.0001 18 21.0001Z" fill="#1D1D1B"/>
<path d="M21 3.75015H4.365L3.75 0.600153C3.71494 0.428196 3.62068 0.27398 3.48364 0.164348C3.3466 0.0547174 3.17546 -0.00338587 3 0.000152579H0V1.50015H2.385L5.25 15.9002C5.28506 16.0721 5.37932 16.2263 5.51636 16.336C5.6534 16.4456 5.82454 16.5037 6 16.5002H19.5V15.0002H6.615L6 12.0002H19.5C19.6734 12.0044 19.8429 11.9484 19.9796 11.8418C20.1163 11.7351 20.2119 11.5843 20.25 11.4152L21.75 4.66515C21.7751 4.55387 21.7745 4.43832 21.7483 4.3273C21.722 4.21628 21.6708 4.11271 21.5985 4.02448C21.5261 3.93625 21.4347 3.86568 21.3309 3.81814C21.2272 3.7706 21.114 3.74735 21 3.75015ZM18.9 10.5002H5.715L4.665 5.25015H20.0625L18.9 10.5002Z" fill="#1D1D1B"/>
</svg>
