<svg width="230" height="56" viewBox="0 0 230 56" fill="none" xmlns="http://www.w3.org/2000/svg">
<g clip-path="url(#clip0_13_79)">
<path d="M29.1887 48.1541H26.5496L22.8718 38.5511H8.07626C7.54283 40.0571 6.97198 41.6561 6.34497 43.3387C5.71796 45.0213 5.12838 46.6295 4.55752 48.1541H2.22729C3.21928 45.5697 4.19255 43.0412 5.1471 40.5684C6.10165 38.0956 7.06556 35.6322 8.02011 33.1873C8.97466 30.7424 9.92921 28.2789 10.8931 25.8061C11.857 23.3333 12.8303 20.8141 13.8129 18.2484H16.9199L29.198 48.1448L29.1887 48.1541ZM22.2448 36.8314L15.2728 20.2191L8.65648 36.8314H22.2448Z" fill="#1D1D1B"/>
<path d="M57.3666 18.2855L45.5844 48.154H42.7582L30.9761 18.2855H33.4186L44.1807 45.421L54.9428 18.2855H57.3572H57.3666Z" fill="#1D1D1B"/>
<path d="M65.4897 48.154H63.2905V18.2855H65.4897V48.154Z" fill="#1D1D1B"/>
<path d="M94.903 20.4701H84.3843V48.154H82.185V20.4701H71.7786V18.2855H94.903V20.4701Z" fill="#1D1D1B"/>
<path d="M122.061 48.154H100.34V18.2855H121.322V20.4701H102.54V31.5139H120.143V33.6985H102.54V45.9695H122.061V48.154Z" fill="#1D1D1B"/>
<path d="M152.897 48.154H150.482L147.488 40.2151C147.197 39.4529 146.87 38.737 146.514 38.0584C146.159 37.3798 145.738 36.8034 145.26 36.3015C144.783 35.7995 144.24 35.409 143.623 35.1116C143.005 34.8234 142.294 34.6746 141.47 34.6746H130.951V48.1448H128.752V18.2855H142.294C143.557 18.2855 144.783 18.3971 145.962 18.6295C147.141 18.8619 148.199 19.2616 149.116 19.8473C150.042 20.4329 150.782 21.2324 151.325 22.2643C151.877 23.2961 152.148 24.6069 152.148 26.2058C152.148 27.2098 152.026 28.1394 151.774 29.004C151.53 29.8685 151.147 30.6401 150.651 31.3187C150.145 31.9973 149.509 32.583 148.732 33.0664C147.956 33.5498 147.048 33.9031 146 34.1169C146.57 34.5538 147.038 34.9721 147.403 35.3718C147.768 35.7716 148.087 36.1992 148.349 36.6547C148.611 37.1102 148.854 37.6122 149.06 38.1514C149.266 38.6999 149.509 39.3227 149.79 40.0292L152.897 48.154ZM130.961 32.4993H141.395C142.874 32.4993 144.147 32.3878 145.214 32.174C146.271 31.9602 147.151 31.5976 147.834 31.0956C148.517 30.5936 149.032 29.9429 149.359 29.1434C149.687 28.344 149.855 27.3586 149.855 26.1965C149.855 24.1421 149.2 22.6733 147.89 21.7902C146.58 20.907 144.624 20.4701 142.032 20.4701H130.97V32.4993H130.961Z" fill="#1D1D1B"/>
<path d="M162.723 48.154H160.524V18.2855H162.723V48.154Z" fill="#1D1D1B"/>
<path d="M193.287 26.2802C193.081 25.3878 192.707 24.5604 192.164 23.7796C191.612 23.008 190.929 22.3294 190.105 21.7623C189.282 21.1952 188.337 20.7397 187.261 20.4144C186.184 20.089 185.043 19.9217 183.817 19.9217C182.076 19.9217 180.494 20.2005 179.081 20.7676C177.659 21.3347 176.452 22.162 175.46 23.259C174.458 24.3559 173.691 25.7317 173.158 27.3772C172.615 29.0226 172.343 30.9376 172.343 33.1222C172.343 35.3068 172.615 37.2311 173.158 38.8951C173.7 40.5591 174.468 41.9535 175.46 43.0784C176.461 44.2032 177.659 45.0584 179.053 45.6441C180.448 46.2298 182.011 46.5179 183.732 46.5179C186.334 46.5179 188.477 45.9416 190.162 44.7889C191.846 43.6361 192.885 41.9442 193.287 39.7318H195.571C195.355 41.1541 194.906 42.4183 194.223 43.5339C193.549 44.6494 192.698 45.5976 191.668 46.3599C190.639 47.1222 189.46 47.7078 188.122 48.1076C186.783 48.5073 185.342 48.7118 183.779 48.7118C181.655 48.7118 179.746 48.34 178.052 47.6056C176.358 46.8712 174.917 45.83 173.728 44.4821C172.54 43.1341 171.623 41.5073 170.986 39.583C170.35 37.668 170.022 35.5113 170.022 33.1315C170.022 30.7517 170.341 28.6414 170.986 26.745C171.623 24.8579 172.549 23.2404 173.747 21.9017C174.945 20.5631 176.396 19.5405 178.089 18.8154C179.783 18.0996 181.683 17.7371 183.789 17.7371C185.239 17.7371 186.615 17.9509 187.925 18.3599C189.235 18.7782 190.414 19.3639 191.453 20.1169C192.492 20.8699 193.372 21.7716 194.092 22.8128C194.803 23.8632 195.299 25.0066 195.571 26.2616H193.287V26.2802Z" fill="#1D1D1B"/>
<path d="M227.164 48.1541H224.525L220.847 38.5511H206.043C205.509 40.0571 204.938 41.6561 204.311 43.3387C203.684 45.0213 203.095 46.6295 202.524 48.1541H200.194C201.186 45.5697 202.159 43.0412 203.113 40.5684C204.077 38.0956 205.032 35.6322 205.986 33.1873C206.941 30.7424 207.896 28.2789 208.859 25.8061C209.823 23.3333 210.797 20.8141 211.779 18.2484H214.886L227.164 48.1448V48.1541ZM220.22 36.8314L213.248 20.2191L206.632 36.8314H220.22Z" fill="#1D1D1B"/>
<path d="M211.442 10.2444V12.429H17.1538V10.2444H211.442Z" fill="#54B8EA"/>
<path d="M230 53.8154V56H0V53.8154H230Z" fill="#B4ADAC"/>
<path d="M64.2918 4.834C65.6356 4.834 66.725 3.75187 66.725 2.417C66.725 1.08213 65.6356 0 64.2918 0C62.948 0 61.8586 1.08213 61.8586 2.417C61.8586 3.75187 62.948 4.834 64.2918 4.834Z" fill="#E30613"/>
</g>
<defs>
<clipPath id="clip0_13_79">
<rect width="230" height="56" fill="white"/>
</clipPath>
</defs>
</svg>
