<svg width="20" height="22" viewBox="0 0 20 22" fill="none" xmlns="http://www.w3.org/2000/svg">
<path d="M9.73438 11C12.4958 11 14.7344 8.76142 14.7344 6C14.7344 3.23858 12.4958 1 9.73438 1C6.97295 1 4.73438 3.23858 4.73438 6C4.73438 8.76142 6.97295 11 9.73438 11Z" stroke="#1D1D1B" stroke-width="2"/>
<path d="M14.7344 13H15.0864C15.8175 13.0002 16.5234 13.2674 17.0714 13.7513C17.6194 14.2352 17.9718 14.9026 18.0624 15.628L18.4534 18.752C18.4886 19.0334 18.4635 19.3191 18.3798 19.5901C18.2961 19.8611 18.1558 20.1112 17.9681 20.3238C17.7803 20.5364 17.5495 20.7066 17.291 20.8232C17.0324 20.9398 16.7521 21.0001 16.4684 21H3.00044C2.71682 21.0001 2.43643 20.9398 2.17788 20.8232C1.91933 20.7066 1.68854 20.5364 1.50081 20.3238C1.31309 20.1112 1.17272 19.8611 1.08904 19.5901C1.00536 19.3191 0.980267 19.0334 1.01544 18.752L1.40544 15.628C1.49613 14.9022 1.84885 14.2346 2.39727 13.7506C2.94568 13.2667 3.65201 12.9997 4.38344 13H4.73444" stroke="#1D1D1B" stroke-width="2" stroke-linecap="round" stroke-linejoin="round"/>
</svg>
