<svg width="20" height="20" viewBox="0 0 20 20" fill="none" xmlns="http://www.w3.org/2000/svg">
<path d="M12.999 13.8615L14.679 12.1815C14.9039 11.9566 15.1898 11.8026 15.5014 11.7386C15.813 11.6746 16.1365 11.7034 16.4318 11.8215L18.4778 12.6405C18.7793 12.7612 19.0378 12.9694 19.2199 13.2384C19.402 13.5073 19.4993 13.8247 19.4993 14.1495V17.8703C19.4998 18.0914 19.4552 18.3103 19.3682 18.5136C19.2812 18.7169 19.1536 18.9004 18.9932 19.0526C18.8329 19.2049 18.6431 19.3229 18.4356 19.3993C18.228 19.4757 18.0071 19.5089 17.7863 19.497C3.44478 18.6045 0.548282 6.45751 0.0105316 1.80601C-0.0155132 1.5786 0.0068812 1.34826 0.076242 1.13013C0.145603 0.912007 0.260358 0.711036 0.41296 0.540439C0.565562 0.369842 0.752552 0.233486 0.961632 0.14034C1.17071 0.047193 1.39714 -0.000633324 1.62603 6.33257e-06H5.28078C5.60558 -4.09695e-06 5.92294 0.097305 6.19191 0.279381C6.46088 0.461457 6.66912 0.719947 6.78978 1.02151L7.60803 3.06751C7.72612 3.36284 7.75495 3.68633 7.69096 3.99788C7.62697 4.30944 7.47296 4.59538 7.24803 4.82026L5.56803 6.50026C5.56803 6.50026 6.49953 13.0493 12.999 13.8615Z" fill="#1D1D1B"/>
</svg>
