<svg width="217" height="150" viewBox="0 0 217 150" fill="none" xmlns="http://www.w3.org/2000/svg">
<path d="M180.2 3H35.36C26.32 3 18.99 10.33 18.99 19.37V122.71H196.57V19.37C196.57 10.33 189.24 3 180.2 3Z" fill="white" stroke="#1D1D1B" stroke-width="4" stroke-linecap="round" stroke-linejoin="round"/>
<path d="M185.41 16.12H30.1499V113.56H185.41V16.12Z" fill="white" stroke="#1D1D1B" stroke-width="4" stroke-linecap="round" stroke-linejoin="round"/>
<path d="M4.5 122.71V127.74C4.5 138.1 12.9 146.5 23.26 146.5H192.3C202.66 146.5 211.06 138.1 211.06 127.74V122.71H4.5Z" fill="white" stroke="#1D1D1B" stroke-width="4" stroke-linecap="round" stroke-linejoin="round"/>
<path d="M69.25 122.71V124.59C69.25 128.46 72.38 131.59 76.25 131.59H139.32C143.19 131.59 146.32 128.46 146.32 124.59V122.71H69.25V122.71Z" stroke="#1D1D1B" stroke-width="4" stroke-linecap="round" stroke-linejoin="round"/>
<path d="M78.55 48.56C78.55 55.41 73 60.95 66.16 60.95C59.32 60.95 53.77 55.4 53.77 48.56C53.77 41.72 59.32 36.17 66.16 36.17C73 36.17 78.55 41.72 78.55 48.56Z" fill="#E30613"/>
<path d="M113.47 66.19C111.52 64.33 108.43 64.4 106.57 66.35L94.9101 78.65L73.5601 68.21C73.4901 68.18 73.4101 68.16 73.3401 68.13C71.1601 67.07 68.7301 66.47 66.1501 66.47C57.0201 66.47 49.6201 73.87 49.6201 83V113.56H82.6701V83.52L93.8701 88.98C94.5501 89.3 95.2701 89.46 95.9801 89.46C97.2801 89.46 98.5701 88.94 99.5101 87.95L113.62 73.08C115.48 71.13 115.41 68.04 113.46 66.18L113.47 66.19Z" stroke="#1D1D1B" stroke-width="4" stroke-linecap="round" stroke-linejoin="round"/>
<path d="M113.47 66.19L125 44.16" stroke="#1D1D1B" stroke-width="4" stroke-linecap="round" stroke-linejoin="round"/>
<path d="M107.78 36.17H166.57" stroke="#1D1D1B" stroke-width="4" stroke-linecap="round" stroke-linejoin="round"/>
<path d="M107.78 53.51H166.57" stroke="#1D1D1B" stroke-width="4" stroke-linecap="round" stroke-linejoin="round"/>
<path d="M114.83 70.85H166.57" stroke="#1D1D1B" stroke-width="4" stroke-linecap="round" stroke-linejoin="round"/>
<path d="M107.78 88.19H166.57" stroke="#1D1D1B" stroke-width="4" stroke-linecap="round" stroke-linejoin="round"/>
</svg>
