<svg width="217" height="150" viewBox="0 0 217 150" fill="none" xmlns="http://www.w3.org/2000/svg">
<path d="M195.744 113.089V141.01H4.5V8H195.744V76.7787" fill="white"/>
<path d="M195.744 113.089V141.01H4.5V8H195.744V76.7787" stroke="#2B2523" stroke-width="4" stroke-linecap="round" stroke-linejoin="round"/>
<path d="M22.6802 17.1844H26.8504" stroke="#2B2523" stroke-width="4" stroke-linecap="round" stroke-linejoin="round"/>
<path d="M35.1909 17.1844H39.3611" stroke="#2B2523" stroke-width="4" stroke-linecap="round" stroke-linejoin="round"/>
<path d="M47.7014 17.1844H51.8617" stroke="#2B2523" stroke-width="4" stroke-linecap="round" stroke-linejoin="round"/>
<path d="M23.8618 45.1049H36.8292" stroke="#2B2523" stroke-width="4" stroke-linecap="round" stroke-linejoin="round"/>
<path d="M23.8616 59.2836H36.8289" stroke="#2B2523" stroke-width="4" stroke-linecap="round" stroke-linejoin="round"/>
<path d="M23.8616 73.4624H36.8289" stroke="#2B2523" stroke-width="4" stroke-linecap="round" stroke-linejoin="round"/>
<path d="M23.8616 87.6411H36.8289" stroke="#2B2523" stroke-width="4" stroke-linecap="round" stroke-linejoin="round"/>
<path d="M50.6304 45.1049H91.6077" stroke="#2B2523" stroke-width="4" stroke-linecap="round" stroke-linejoin="round"/>
<path d="M50.6304 59.2836H91.6077" stroke="#2B2523" stroke-width="4" stroke-linecap="round" stroke-linejoin="round"/>
<path d="M50.6304 73.4624H91.6077" stroke="#2B2523" stroke-width="4" stroke-linecap="round" stroke-linejoin="round"/>
<path d="M50.6304 87.6411H91.6077" stroke="#2B2523" stroke-width="4" stroke-linecap="round" stroke-linejoin="round"/>
<path d="M24.0303 103.627H107.107" stroke="#2B2523" stroke-width="4" stroke-linecap="round" stroke-linejoin="round"/>
<path d="M72.4146 115.899H150.11" stroke="#2B2523" stroke-width="4" stroke-linecap="round" stroke-linejoin="round"/>
<path d="M24.0303 115.899H52.3778" stroke="#2B2523" stroke-width="4" stroke-linecap="round" stroke-linejoin="round"/>
<path d="M115.626 103.627H150.11" stroke="#2B2523" stroke-width="4" stroke-linecap="round" stroke-linejoin="round"/>
<path d="M4.5 26.0411H195.744" stroke="#2B2523" stroke-width="4" stroke-linecap="round" stroke-linejoin="round"/>
<path d="M214.5 83.8383L156.256 61.9149L178.179 120.159L186.351 103.706L198.018 115.363L203.856 109.515L209.704 103.677L198.048 92.0099L214.5 83.8383Z" fill="#E30613"/>
</svg>
